<svg version="1.2" xmlns="http://www.w3.org/2000/svg" viewBox="0 0 40 40" width="40" height="40">
	<title>paper-plane</title>
	<style>
		.s0 { fill: #da6464 } 
	</style>
	<g style="opacity: .1">
		<path fill-rule="evenodd" class="s0" d="m8.1 0.1h23.8c4.4 0 7.9 3.6 7.9 8v23.8c0 4.4-3.5 8-7.9 8h-23.8c-4.4 0-7.9-3.6-7.9-8v-23.8c0-4.4 3.5-8 7.9-8z"/>
	</g>
	<path class="s0" d="m17.3 24.7v3.8c0 0.3 0.2 0.5 0.4 0.6q0.1 0 0.2 0c0.2 0 0.4-0.1 0.5-0.2l2.3-3.1z"/>
	<path class="s0" d="m29.7 10.2c-0.2-0.2-0.5-0.2-0.7-0.1l-18.6 9.8c-0.2 0.1-0.3 0.3-0.3 0.6 0 0.2 0.2 0.4 0.4 0.5l5.2 1.8 11-9.5-8.5 10.3 8.6 3q0.1 0 0.2 0 0.2 0 0.3-0.1 0.3-0.1 0.3-0.4l2.3-15.3c0-0.3-0.1-0.5-0.2-0.6z"/>
</svg>